<svg width="51" height="51" viewBox="0 0 51 51" fill="none" xmlns="http://www.w3.org/2000/svg">
    <path d="M25.5 0C11.4176 0 0 11.4176 0 25.5C0 39.5824 11.4176 51 25.5 51C39.5824 51 51 39.5824 51 25.5C51 11.4176 39.5824 0 25.5 0ZM25.534 48.3692H25.5C12.8563 48.3501 2.62437 38.0842 2.6435 25.4426C2.66262 12.7989 12.9264 2.56487 25.5701 2.584C38.199 2.60312 48.4266 12.8456 48.4266 25.4766C48.4266 38.1204 38.1777 48.3692 25.534 48.3692ZM45.6684 25.2981C45.3031 27.3614 44.3959 29.2905 43.0396 30.8878C41.6834 32.485 39.9269 33.693 37.9501 34.388C35.9734 35.083 33.8474 35.2399 31.79 34.8428C29.7326 34.4456 27.8177 33.5087 26.2416 32.1279C28.9434 31.4198 31.3579 29.8884 33.15 27.7461L33.371 28.1052C34.0914 29.3463 34.578 30.7105 34.8075 32.1279C34.969 30.2151 34.7161 28.29 34.0659 26.4839C35.769 23.8657 36.5076 20.7364 36.155 17.633C35.8023 14.5297 34.3804 11.6459 32.1332 9.47663C29.8861 7.3074 26.9539 5.98806 23.84 5.7451C20.7261 5.50214 17.6248 6.3507 15.0684 8.14512C17.0345 7.40729 19.1617 7.20653 21.2311 7.56348C23.3006 7.92044 25.2376 8.82223 26.8429 10.1761C28.4483 11.53 29.664 13.287 30.365 15.2666C31.0661 17.2461 31.2271 19.3767 30.8316 21.4391C28.8531 19.4658 26.3094 18.1572 23.5535 17.6949L23.7511 17.323C24.4678 16.0768 25.407 14.9726 26.5221 14.0654C24.7875 14.888 23.2498 16.0736 22.0129 17.5419C18.9017 17.3829 15.8318 18.3092 13.3278 20.1625C10.8238 22.0159 9.04116 24.6813 8.28441 27.7033C7.52767 30.7252 7.84382 33.9162 9.17884 36.7309C10.5139 39.5456 12.7849 41.8094 15.6039 43.1354C13.9773 41.8015 12.736 40.0578 12.0081 38.0842C11.2801 36.1106 11.0919 33.9785 11.4629 31.9078C11.8338 29.8372 12.7505 27.9031 14.1183 26.3049C15.4861 24.7067 17.2555 23.5024 19.244 22.8161C18.5358 25.4964 18.6732 28.3301 19.6371 30.9294H19.2419C17.8044 30.9336 16.3783 30.6743 15.0344 30.1644C16.6084 31.2582 18.3991 32.001 20.2852 32.3425C21.9071 35.5184 24.7241 37.9201 28.1166 39.0191C31.5091 40.1182 35.1993 39.8247 38.3754 38.2033C40.7235 37.0055 42.6671 35.1431 43.964 32.8482C45.2608 30.5534 45.8536 27.9276 45.6684 25.2981ZM22.2551 22.2318C24.973 22.0391 27.6744 22.7879 29.9051 24.3525C28.711 26.8028 26.7098 28.7673 24.2378 29.9158C22.7124 27.6589 22.0121 24.9449 22.2551 22.2318Z" fill="#FF1818"/>
</svg>
