<svg xmlns="http://www.w3.org/2000/svg" width="48" height="48" viewBox="0 0 48 48" fill="none">
    <g id="facebook">
        <g clip-path="url(#clip0_17_24)">
            <path d="M48 24C48 10.7453 37.2547 0 24 0C10.7453 0 0 10.7453 0 24C0 35.255 7.74912 44.6995 18.2026 47.2934V31.3344H13.2538V24H18.2026V20.8397C18.2026 12.671 21.8995 8.8848 29.9194 8.8848C31.44 8.8848 34.0637 9.18336 35.137 9.48096V16.129C34.5706 16.0694 33.5866 16.0397 32.3645 16.0397C28.4294 16.0397 26.9088 17.5306 26.9088 21.4061V24H34.7482L33.4013 31.3344H26.9088V47.8243C38.7926 46.3891 48.001 36.2707 48.001 24H48Z"
                  fill="#0866FF"/>
            <path d="M33.4003 31.3344L34.7472 24H26.9078V21.4061C26.9078 17.5306 28.4285 16.0397 32.3635 16.0397C33.5856 16.0397 34.5696 16.0694 35.136 16.129V9.48096C34.0627 9.1824 31.439 8.8848 29.9184 8.8848C21.8986 8.8848 18.2016 12.671 18.2016 20.8397V24H13.2528V31.3344H18.2016V47.2934C20.0582 47.7542 22.0003 48 23.999 48C24.983 48 25.9536 47.9395 26.9069 47.8243V31.3344H33.3994H33.4003Z"
                  fill="white"/>
        </g>
        <defs>
            <clipPath id="clip0_17_24">
                <rect width="48" height="48" fill="white"/>
            </clipPath>
        </defs>
    </g>
    <g id="website">
        <path fill-rule="evenodd" clip-rule="evenodd"
              d="M24 0C10.7505 0 0 10.7505 0 24C0 37.2495 10.7505 48 24 48C37.2234 48 48 37.2495 48 24C48 10.7505 37.2234 0 24 0ZM39.8525 11.0629C42.7158 14.551 44.4339 19.0021 44.486 23.8177C43.8092 23.6877 37.0411 22.308 30.2212 23.167C30.0651 22.8286 29.9349 22.4641 29.7788 22.0998C29.3622 21.1107 28.8937 20.0955 28.4251 19.1324C35.9739 16.0608 39.41 11.6356 39.8525 11.0629ZM24 3.54013C29.2061 3.54013 33.9696 5.49242 37.5879 8.69415C37.2234 9.21476 34.1258 13.3536 26.8372 16.0868C23.4794 9.91756 19.7571 4.86768 19.1844 4.08676C20.7201 3.72234 22.3341 3.54013 24 3.54013ZM15.2799 5.46637C15.8265 6.19522 19.4708 11.2712 22.8807 17.3102C13.3015 19.8612 4.84165 19.8092 3.93058 19.8092C5.25813 13.4577 9.55314 8.17353 15.2799 5.46637ZM3.48807 24.0261C3.48807 23.8178 3.48807 23.6096 3.48807 23.4014C4.3731 23.4273 14.3167 23.5575 24.5466 20.486C25.1454 21.6312 25.692 22.8026 26.2127 23.9739C25.9522 24.052 25.6659 24.1302 25.4056 24.2082C14.8373 27.6181 9.21476 36.937 8.7462 37.7179C5.4924 34.0998 3.48807 29.2842 3.48807 24.0261ZM24 44.5119C19.2624 44.5119 14.8894 42.898 11.4273 40.1908C11.7918 39.4361 15.9565 31.4187 27.514 27.384C27.5661 27.3579 27.5922 27.3579 27.6443 27.332C30.5336 34.8026 31.705 41.0759 32.0173 42.872C29.5445 43.9392 26.8372 44.5119 24 44.5119ZM35.4273 40.9978C35.2191 39.7483 34.1258 33.7614 31.4447 26.3948C37.8743 25.3796 43.4967 27.0456 44.1996 27.2799C43.3146 32.9805 40.0347 37.9002 35.4273 40.9978Z"
              fill="white"/>
    </g>
    <g id="vk">
        <g clip-path="url(#clip0_1106_5)">
            <path d="M0 23.04C0 12.1788 0 6.74826 3.37413 3.37413C6.74826 0 12.1788 0 23.04 0H24.96C35.8212 0 41.2517 0 44.6259 3.37413C48 6.74826 48 12.1788 48 23.04V24.96C48 35.8212 48 41.2517 44.6259 44.6259C41.2517 48 35.8212 48 24.96 48H23.04C12.1788 48 6.74826 48 3.37413 44.6259C0 41.2517 0 35.8212 0 24.96V23.04Z" fill="#0077FF"/>
            <path d="M25.54 34.5801C14.6 34.5801 8.3601 27.0801 8.1001 14.6001H13.5801C13.7601 23.7601 17.8 27.6401 21 28.4401V14.6001H26.1602V22.5001C29.3202 22.1601 32.6398 18.5601 33.7598 14.6001H38.9199C38.0599 19.4801 34.4599 23.0801 31.8999 24.5601C34.4599 25.7601 38.5601 28.9001 40.1201 34.5801H34.4399C33.2199 30.7801 30.1802 27.8401 26.1602 27.4401V34.5801H25.54Z" fill="white"/>
        </g>
        <defs>
            <clipPath id="clip0_1106_5">
                <rect width="48" height="48" fill="white"/>
            </clipPath>
        </defs>
    </g>
    <g id="twitter">
        <path d="M36.6526 3.80782H43.3995L28.6594 20.6548L46 43.5798H32.4225L21.7881 29.6759L9.61989 43.5798H2.86886L18.6349 25.56L2 3.80782H15.9222L25.5348 16.5165L36.6526 3.80782ZM34.2846 39.5414H38.0232L13.8908 7.63408H9.87892L34.2846 39.5414Z" fill="black"/>
    </g>
    <g id="instagram">
        <g clip-path="url(#clip0_17_27)">
            <path d="M24 4.32187C30.4125 4.32187 31.1719 4.35 33.6938 4.4625C36.0375 4.56562 37.3031 4.95938 38.1469 5.2875C39.2625 5.71875 40.0688 6.24375 40.9031 7.07812C41.7469 7.92188 42.2625 8.71875 42.6938 9.83438C43.0219 10.6781 43.4156 11.9531 43.5188 14.2875C43.6313 16.8187 43.6594 17.5781 43.6594 23.9813C43.6594 30.3938 43.6313 31.1531 43.5188 33.675C43.4156 36.0188 43.0219 37.2844 42.6938 38.1281C42.2625 39.2438 41.7375 40.05 40.9031 40.8844C40.0594 41.7281 39.2625 42.2438 38.1469 42.675C37.3031 43.0031 36.0281 43.3969 33.6938 43.5C31.1625 43.6125 30.4031 43.6406 24 43.6406C17.5875 43.6406 16.8281 43.6125 14.3063 43.5C11.9625 43.3969 10.6969 43.0031 9.85313 42.675C8.7375 42.2438 7.93125 41.7188 7.09688 40.8844C6.25313 40.0406 5.7375 39.2438 5.30625 38.1281C4.97813 37.2844 4.58438 36.0094 4.48125 33.675C4.36875 31.1438 4.34063 30.3844 4.34063 23.9813C4.34063 17.5688 4.36875 16.8094 4.48125 14.2875C4.58438 11.9437 4.97813 10.6781 5.30625 9.83438C5.7375 8.71875 6.2625 7.9125 7.09688 7.07812C7.94063 6.23438 8.7375 5.71875 9.85313 5.2875C10.6969 4.95938 11.9719 4.56562 14.3063 4.4625C16.8281 4.35 17.5875 4.32187 24 4.32187ZM24 0C17.4844 0 16.6688 0.028125 14.1094 0.140625C11.5594 0.253125 9.80625 0.665625 8.2875 1.25625C6.70312 1.875 5.3625 2.69062 4.03125 4.03125C2.69063 5.3625 1.875 6.70313 1.25625 8.27813C0.665625 9.80625 0.253125 11.55 0.140625 14.1C0.028125 16.6687 0 17.4844 0 24C0 30.5156 0.028125 31.3312 0.140625 33.8906C0.253125 36.4406 0.665625 38.1938 1.25625 39.7125C1.875 41.2969 2.69063 42.6375 4.03125 43.9688C5.3625 45.3 6.70313 46.125 8.27813 46.7344C9.80625 47.325 11.55 47.7375 14.1 47.85C16.6594 47.9625 17.475 47.9906 23.9906 47.9906C30.5063 47.9906 31.3219 47.9625 33.8813 47.85C36.4313 47.7375 38.1844 47.325 39.7031 46.7344C41.2781 46.125 42.6188 45.3 43.95 43.9688C45.2812 42.6375 46.1063 41.2969 46.7156 39.7219C47.3063 38.1938 47.7188 36.45 47.8313 33.9C47.9438 31.3406 47.9719 30.525 47.9719 24.0094C47.9719 17.4938 47.9438 16.6781 47.8313 14.1188C47.7188 11.5688 47.3063 9.81563 46.7156 8.29688C46.125 6.70312 45.3094 5.3625 43.9688 4.03125C42.6375 2.7 41.2969 1.875 39.7219 1.26562C38.1938 0.675 36.45 0.2625 33.9 0.15C31.3313 0.028125 30.5156 0 24 0Z" fill="#000100"/>
            <path d="M24 11.6719C17.1938 11.6719 11.6719 17.1938 11.6719 24C11.6719 30.8062 17.1938 36.3281 24 36.3281C30.8062 36.3281 36.3281 30.8062 36.3281 24C36.3281 17.1938 30.8062 11.6719 24 11.6719ZM24 31.9969C19.5844 31.9969 16.0031 28.4156 16.0031 24C16.0031 19.5844 19.5844 16.0031 24 16.0031C28.4156 16.0031 31.9969 19.5844 31.9969 24C31.9969 28.4156 28.4156 31.9969 24 31.9969Z" fill="#000100"/>
            <path d="M39.6937 11.1844C39.6937 12.7782 38.4 14.0625 36.8156 14.0625C35.2219 14.0625 33.9375 12.7688 33.9375 11.1844C33.9375 9.59065 35.2313 8.30627 36.8156 8.30627C38.4 8.30627 39.6937 9.60003 39.6937 11.1844Z" fill="#000100"/>
        </g>
        <defs>
            <clipPath id="clip0_17_27">
                <rect width="48" height="48" fill="white"/>
            </clipPath>
        </defs>
    </g>
    <g id="youtube">
        <g clip-path="url(#clip0_17_47)">
            <path d="M47.044 12.3709C46.7726 11.3497 46.2378 10.4178 45.493 9.66822C44.7483 8.91869 43.8197 8.37791 42.8003 8.1C39.0476 7.09091 24.0476 7.09091 24.0476 7.09091C24.0476 7.09091 9.04761 7.09091 5.29488 8.1C4.27547 8.37791 3.34693 8.91869 2.60218 9.66822C1.85744 10.4178 1.32262 11.3497 1.05124 12.3709C0.0476075 16.14 0.0476074 24 0.0476074 24C0.0476074 24 0.0476075 31.86 1.05124 35.6291C1.32262 36.6503 1.85744 37.5822 2.60218 38.3318C3.34693 39.0813 4.27547 39.6221 5.29488 39.9C9.04761 40.9091 24.0476 40.9091 24.0476 40.9091C24.0476 40.9091 39.0476 40.9091 42.8003 39.9C43.8197 39.6221 44.7483 39.0813 45.493 38.3318C46.2378 37.5822 46.7726 36.6503 47.044 35.6291C48.0476 31.86 48.0476 24 48.0476 24C48.0476 24 48.0476 16.14 47.044 12.3709Z" fill="#FF0302"/>
            <path d="M19.1385 31.1373V16.8628L31.684 24.0001L19.1385 31.1373Z" fill="#FEFEFE"/>
        </g>
        <defs>
            <clipPath id="clip0_17_47">
                <rect width="48" height="48" fill="white"/>
            </clipPath>
        </defs>
    </g>
    <g id="github">
        <g clip-path="url(#clip0_910_21)">
            <path fill-rule="evenodd" clip-rule="evenodd" d="M24.0199 0C10.7375 0 0 10.8167 0 24.1983C0 34.895 6.87988 43.9495 16.4241 47.1542C17.6174 47.3951 18.0545 46.6335 18.0545 45.9929C18.0545 45.4319 18.0151 43.509 18.0151 41.5055C11.3334 42.948 9.94198 38.6209 9.94198 38.6209C8.86818 35.8164 7.27715 35.0956 7.27715 35.0956C5.09022 33.6132 7.43645 33.6132 7.43645 33.6132C9.86233 33.7735 11.1353 36.0971 11.1353 36.0971C13.2824 39.7827 16.7422 38.7413 18.1341 38.1002C18.3328 36.5377 18.9695 35.456 19.6455 34.8552C14.3163 34.2942 8.70937 32.211 8.70937 22.9161C8.70937 20.2719 9.66321 18.1086 11.1746 16.4261C10.9361 15.8253 10.1008 13.3409 11.4135 10.0157C11.4135 10.0157 13.4417 9.3746 18.0146 12.4996C19.9725 11.9699 21.9916 11.7005 24.0199 11.6982C26.048 11.6982 28.1154 11.979 30.0246 12.4996C34.5981 9.3746 36.6262 10.0157 36.6262 10.0157C37.9389 13.3409 37.1031 15.8253 36.8646 16.4261C38.4158 18.1086 39.3303 20.2719 39.3303 22.9161C39.3303 32.211 33.7234 34.2539 28.3544 34.8552C29.2296 35.6163 29.9848 37.0583 29.9848 39.3421C29.9848 42.5871 29.9454 45.1915 29.9454 45.9924C29.9454 46.6335 30.383 47.3951 31.5758 47.1547C41.12 43.9491 47.9999 34.895 47.9999 24.1983C48.0392 10.8167 37.2624 0 24.0199 0Z" fill="#24292F"/>
        </g>
        <defs>
            <clipPath id="clip0_910_21">
                <rect width="48" height="48" fill="white"/>
            </clipPath>
        </defs>
    </g>
    <g id="mainLink">
        <path d="M35.3843 22.2471C35.1775 22.148 34.9675 22.0526 34.7547 21.9613C34.3842 15.1346 30.654 11.2262 24.3905 11.1862C24.3621 11.1861 24.3339 11.1861 24.3055 11.1861C20.5591 11.1861 17.4433 12.7852 15.5255 15.6952L18.9702 18.0582C20.4029 15.8846 22.6513 15.4212 24.3071 15.4212C24.3263 15.4212 24.3455 15.4212 24.3644 15.4214C26.4268 15.4345 27.983 16.0342 28.9902 17.2035C29.7232 18.0548 30.2135 19.2313 30.4562 20.716C28.6277 20.4052 26.6502 20.3096 24.5362 20.4308C18.5812 20.7738 14.7528 24.247 15.0099 29.073C15.1404 31.521 16.3599 33.627 18.4438 35.0028C20.2056 36.1657 22.4748 36.7345 24.8331 36.6058C27.9475 36.435 30.3907 35.2467 32.0952 33.074C33.3897 31.424 34.2085 29.2857 34.57 26.5915C36.0542 27.4872 37.1543 28.666 37.7617 30.083C38.7948 32.4917 38.855 36.45 35.6253 39.677C32.7955 42.504 29.394 43.727 24.2534 43.7648C18.551 43.7225 14.2384 41.8937 11.4345 38.3293C8.80887 34.9915 7.45192 30.1705 7.4013 24C7.45192 17.8295 8.80887 13.0084 11.4345 9.67068C14.2384 6.10623 18.551 4.2775 24.2533 4.23513C29.997 4.27782 34.3848 6.11535 37.296 9.697C38.7235 11.4534 39.7998 13.6622 40.5093 16.2376L44.546 15.1606C43.686 11.9906 42.3327 9.25893 40.4912 6.9935C36.759 2.40167 31.3005 0.048787 24.2674 0H24.2392C17.2204 0.0486175 11.823 2.41045 8.19707 7.01982C4.97047 11.1216 3.3061 16.8289 3.25017 23.9831L3.25 24L3.25017 24.0169C3.3061 31.171 4.97047 36.8785 8.19707 40.9803C11.823 45.5895 17.2204 47.9515 24.2392 48H24.2674C30.5075 47.9567 34.906 46.323 38.5295 42.7028C43.2702 37.9665 43.1275 32.0298 41.565 28.3853C40.444 25.7717 38.3068 23.649 35.3843 22.2471ZM24.6101 32.3768C22.0001 32.5238 19.2886 31.3523 19.1549 28.843C19.0558 26.9825 20.479 24.9065 24.7703 24.6592C25.2617 24.6308 25.744 24.617 26.2178 24.617C27.7765 24.617 29.2347 24.7684 30.5605 25.0583C30.066 31.2337 27.1655 32.2365 24.6101 32.3768Z" fill="black"/>
    </g>
</svg>